# MANI Agentic Pattern Engine — bodice sloper pattern pieces
o Front_Bodice
v 13.583333 -17.333333 0.000000
v 0.000000 0.000000 0.000000
v 17.000000 -3.000000 0.000000
v 21.500000 -5.000000 0.000000
v 21.500000 -16.000000 0.000000
v 21.500000 -40.000000 0.000000
v 0.000000 -40.000000 0.000000
f 1 2 3
f 1 3 4
f 1 4 5
f 1 5 6
f 1 6 7
f 1 7 2
v 12.900000 -16.000000 0.100000
v 22.881305 -15.388808 0.100000
v 22.881305 -16.611192 0.100000
f 8 9 10
v 7.525000 -34.000000 0.100000
v 13.522722 -33.834674 0.100000
v 13.522722 -34.165326 0.100000
f 11 12 13
o Back_Bodice
v 73.083333 -17.333333 0.000000
v 60.000000 0.000000 0.000000
v 77.000000 -3.000000 0.000000
v 80.500000 -5.000000 0.000000
v 80.500000 -16.000000 0.000000
v 80.500000 -40.000000 0.000000
v 60.000000 -40.000000 0.000000
f 14 15 16
f 14 16 17
f 14 17 18
f 14 18 19
f 14 19 20
f 14 20 15
v 68.500000 -5.000000 0.100000
v 75.995431 -4.738254 0.100000
v 75.995431 -5.261746 0.100000
f 21 22 23
