# MANI Agentic Pattern Engine — bodice sloper pattern pieces
o Front_Bodice
v 19.416667 -18.133333 0.000000
v 0.000000 0.000000 0.000000
v 19.000000 -3.000000 0.000000
v 32.500000 -5.000000 0.000000
v 32.500000 -16.800000 0.000000
v 32.500000 -42.000000 0.000000
v 0.000000 -42.000000 0.000000
f 1 2 3
f 1 3 4
f 1 4 5
f 1 5 6
f 1 6 7
f 1 7 2
v 19.500000 -16.800000 0.100000
v 29.428097 -15.602963 0.100000
v 29.428097 -17.997037 0.100000
f 8 9 10
v 11.375000 -35.700000 0.100000
v 17.366078 -35.372913 0.100000
v 17.366078 -36.027087 0.100000
f 11 12 13
o Back_Bodice
v 78.916667 -18.133333 0.000000
v 60.000000 0.000000 0.000000
v 79.000000 -3.000000 0.000000
v 91.500000 -5.000000 0.000000
v 91.500000 -16.800000 0.000000
v 91.500000 -42.000000 0.000000
v 60.000000 -42.000000 0.000000
f 14 15 16
f 14 16 17
f 14 17 18
f 14 18 19
f 14 19 20
f 14 20 15
v 69.500000 -5.000000 0.100000
v 76.992862 -4.672855 0.100000
v 76.992862 -5.327145 0.100000
f 21 22 23
