# MANI Agentic Pattern Engine — bodice sloper pattern pieces
o Front_Bodice
v 20.000000 -19.733333 0.000000
v 0.000000 0.000000 0.000000
v 22.500000 -3.000000 0.000000
v 32.500000 -5.000000 0.000000
v 32.500000 -18.400000 0.000000
v 32.500000 -46.000000 0.000000
v 0.000000 -46.000000 0.000000
f 1 2 3
f 1 3 4
f 1 4 5
f 1 5 6
f 1 6 7
f 1 7 2
v 19.500000 -18.400000 0.100000
v 29.234940 -16.112874 0.100000
v 29.234940 -20.687126 0.100000
f 8 9 10
v 11.375000 -39.100000 0.100000
v 17.364205 -38.740242 0.100000
v 17.364205 -39.459758 0.100000
f 11 12 13
o Back_Bodice
v 79.500000 -19.733333 0.000000
v 60.000000 0.000000 0.000000
v 82.500000 -3.000000 0.000000
v 91.500000 -5.000000 0.000000
v 91.500000 -18.400000 0.000000
v 91.500000 -46.000000 0.000000
v 60.000000 -46.000000 0.000000
f 14 15 16
f 14 16 17
f 14 17 18
f 14 18 19
f 14 19 20
f 14 20 15
v 71.250000 -5.000000 0.100000
v 78.741363 -4.640164 0.100000
v 78.741363 -5.359836 0.100000
f 21 22 23
