# MANI Agentic Pattern Engine — bodice sloper pattern pieces
o Front_Bodice
v 15.416667 -19.733333 0.000000
v 0.000000 0.000000 0.000000
v 19.000000 -3.000000 0.000000
v 24.500000 -5.000000 0.000000
v 24.500000 -18.400000 0.000000
v 24.500000 -46.000000 0.000000
v 0.000000 -46.000000 0.000000
f 1 2 3
f 1 3 4
f 1 4 5
f 1 5 6
f 1 6 7
f 1 7 2
v 14.700000 -18.400000 0.100000
v 24.685665 -17.864757 0.100000
v 24.685665 -18.935243 0.100000
f 8 9 10
v 8.575000 -39.100000 0.100000
v 14.572849 -38.939370 0.100000
v 14.572849 -39.260630 0.100000
f 11 12 13
o Back_Bodice
v 74.916667 -19.733333 0.000000
v 60.000000 0.000000 0.000000
v 79.000000 -3.000000 0.000000
v 83.500000 -5.000000 0.000000
v 83.500000 -18.400000 0.000000
v 83.500000 -46.000000 0.000000
v 60.000000 -46.000000 0.000000
f 14 15 16
f 14 16 17
f 14 17 18
f 14 18 19
f 14 19 20
f 14 20 15
v 69.500000 -5.000000 0.100000
v 76.995431 -4.738254 0.100000
v 76.995431 -5.261746 0.100000
f 21 22 23
