# MANI Agentic Pattern Engine — bodice sloper pattern pieces
o Front_Bodice
v 16.750000 -18.933333 0.000000
v 0.000000 0.000000 0.000000
v 18.000000 -3.000000 0.000000
v 27.500000 -5.000000 0.000000
v 27.500000 -17.600000 0.000000
v 27.500000 -44.000000 0.000000
v 0.000000 -44.000000 0.000000
f 1 2 3
f 1 3 4
f 1 4 5
f 1 5 6
f 1 6 7
f 1 7 2
v 16.500000 -17.600000 0.100000
v 26.430416 -16.422363 0.100000
v 26.430416 -18.777637 0.100000
f 8 9 10
v 9.625000 -37.400000 0.100000
v 15.617754 -37.105209 0.100000
v 15.617754 -37.694791 0.100000
f 11 12 13
o Back_Bodice
v 76.250000 -18.933333 0.000000
v 60.000000 0.000000 0.000000
v 78.000000 -3.000000 0.000000
v 86.500000 -5.000000 0.000000
v 86.500000 -17.600000 0.000000
v 86.500000 -44.000000 0.000000
v 60.000000 -44.000000 0.000000
f 14 15 16
f 14 16 17
f 14 17 18
f 14 18 19
f 14 19 20
f 14 20 15
v 69.000000 -5.000000 0.100000
v 76.495431 -4.738254 0.100000
v 76.495431 -5.261746 0.100000
f 21 22 23
