# MANI Agentic Pattern Engine — bodice sloper pattern pieces
o Front_Bodice
v 16.083333 -19.733333 0.000000
v 0.000000 0.000000 0.000000
v 20.000000 -3.000000 0.000000
v 25.500000 -5.000000 0.000000
v 25.500000 -18.400000 0.000000
v 25.500000 -46.000000 0.000000
v 0.000000 -46.000000 0.000000
f 1 2 3
f 1 3 4
f 1 4 5
f 1 5 6
f 1 6 7
f 1 7 2
v 15.300000 -18.400000 0.100000
v 25.286885 -17.888008 0.100000
v 25.286885 -18.911992 0.100000
f 8 9 10
v 8.925000 -39.100000 0.100000
v 14.922944 -38.942938 0.100000
v 14.922944 -39.257062 0.100000
f 11 12 13
o Back_Bodice
v 75.583333 -19.733333 0.000000
v 60.000000 0.000000 0.000000
v 80.000000 -3.000000 0.000000
v 84.500000 -5.000000 0.000000
v 84.500000 -18.400000 0.000000
v 84.500000 -46.000000 0.000000
v 60.000000 -46.000000 0.000000
f 14 15 16
f 14 16 17
f 14 17 18
f 14 18 19
f 14 19 20
f 14 20 15
v 70.000000 -5.000000 0.100000
v 77.495431 -4.738254 0.100000
v 77.495431 -5.261746 0.100000
f 21 22 23
