# MANI Agentic Pattern Engine — body model mesh
# vertices: 80, faces: 120
v 16.663812 0.000000 0.000000
v 15.848227 0.000000 3.893687
v 13.481307 0.000000 7.406233
v 9.794743 0.000000 10.193805
v 5.149401 0.000000 11.983536
v 0.000000 0.000000 12.600236
v -5.149401 0.000000 11.983536
v -9.794743 0.000000 10.193805
v -13.481307 0.000000 7.406233
v -15.848227 0.000000 3.893687
v -16.663812 0.000000 0.000000
v -15.848227 0.000000 -3.893687
v -13.481307 0.000000 -7.406233
v -9.794743 0.000000 -10.193805
v -5.149401 0.000000 -11.983536
v -0.000000 0.000000 -12.600236
v 5.149401 0.000000 -11.983536
v 9.794743 0.000000 -10.193805
v 13.481307 0.000000 -7.406233
v 15.848227 0.000000 -3.893687
v 13.968213 18.400000 0.000000
v 13.284560 18.400000 3.567285
v 11.300522 18.400000 6.785380
v 8.210310 18.400000 9.339274
v 4.316415 18.400000 10.978975
v 0.000000 18.400000 11.543978
v -4.316415 18.400000 10.978975
v -8.210310 18.400000 9.339274
v -11.300522 18.400000 6.785380
v -13.284560 18.400000 3.567285
v -13.968213 18.400000 0.000000
v -13.284560 18.400000 -3.567285
v -11.300522 18.400000 -6.785380
v -8.210310 18.400000 -9.339274
v -4.316415 18.400000 -10.978975
v -0.000000 18.400000 -11.543978
v 4.316415 18.400000 -10.978975
v 8.210310 18.400000 -9.339274
v 11.300522 18.400000 -6.785380
v 13.284560 18.400000 -3.567285
v 15.903973 36.800000 0.000000
v 15.125577 36.800000 3.412915
v 12.866585 36.800000 6.491751
v 9.348121 36.800000 8.935128
v 4.914598 36.800000 10.503873
v 0.000000 36.800000 11.044426
v -4.914598 36.800000 10.503873
v -9.348121 36.800000 8.935128
v -12.866585 36.800000 6.491751
v -15.125577 36.800000 3.412915
v -15.903973 36.800000 0.000000
v -15.125577 36.800000 -3.412915
v -12.866585 36.800000 -6.491751
v -9.348121 36.800000 -8.935128
v -4.914598 36.800000 -10.503873
v -0.000000 36.800000 -11.044426
v 4.914598 36.800000 -10.503873
v 9.348121 36.800000 -8.935128
v 12.866585 36.800000 -6.491751
v 15.125577 36.800000 -3.412915
v 19.000000 46.000000 0.000000
v 18.070074 46.000000 2.995573
v 15.371323 46.000000 5.697918
v 11.167920 46.000000 7.842512
v 5.871323 46.000000 9.219425
v 0.000000 46.000000 9.693878
v -5.871323 46.000000 9.219425
v -11.167920 46.000000 7.842512
v -15.371323 46.000000 5.697918
v -18.070074 46.000000 2.995573
v -19.000000 46.000000 0.000000
v -18.070074 46.000000 -2.995573
v -15.371323 46.000000 -5.697918
v -11.167920 46.000000 -7.842512
v -5.871323 46.000000 -9.219425
v -0.000000 46.000000 -9.693878
v 5.871323 46.000000 -9.219425
v 11.167920 46.000000 -7.842512
v 15.371323 46.000000 -5.697918
v 18.070074 46.000000 -2.995573
f 1 2 21
f 2 22 21
f 2 3 22
f 3 23 22
f 3 4 23
f 4 24 23
f 4 5 24
f 5 25 24
f 5 6 25
f 6 26 25
f 6 7 26
f 7 27 26
f 7 8 27
f 8 28 27
f 8 9 28
f 9 29 28
f 9 10 29
f 10 30 29
f 10 11 30
f 11 31 30
f 11 12 31
f 12 32 31
f 12 13 32
f 13 33 32
f 13 14 33
f 14 34 33
f 14 15 34
f 15 35 34
f 15 16 35
f 16 36 35
f 16 17 36
f 17 37 36
f 17 18 37
f 18 38 37
f 18 19 38
f 19 39 38
f 19 20 39
f 20 40 39
f 20 1 40
f 1 21 40
f 21 22 41
f 22 42 41
f 22 23 42
f 23 43 42
f 23 24 43
f 24 44 43
f 24 25 44
f 25 45 44
f 25 26 45
f 26 46 45
f 26 27 46
f 27 47 46
f 27 28 47
f 28 48 47
f 28 29 48
f 29 49 48
f 29 30 49
f 30 50 49
f 30 31 50
f 31 51 50
f 31 32 51
f 32 52 51
f 32 33 52
f 33 53 52
f 33 34 53
f 34 54 53
f 34 35 54
f 35 55 54
f 35 36 55
f 36 56 55
f 36 37 56
f 37 57 56
f 37 38 57
f 38 58 57
f 38 39 58
f 39 59 58
f 39 40 59
f 40 60 59
f 40 21 60
f 21 41 60
f 41 42 61
f 42 62 61
f 42 43 62
f 43 63 62
f 43 44 63
f 44 64 63
f 44 45 64
f 45 65 64
f 45 46 65
f 46 66 65
f 46 47 66
f 47 67 66
f 47 48 67
f 48 68 67
f 48 49 68
f 49 69 68
f 49 50 69
f 50 70 69
f 50 51 70
f 51 71 70
f 51 52 71
f 52 72 71
f 52 53 72
f 53 73 72
f 53 54 73
f 54 74 73
f 54 55 74
f 55 75 74
f 55 56 75
f 56 76 75
f 56 57 76
f 57 77 76
f 57 58 77
f 58 78 77
f 58 59 78
f 59 79 78
f 59 60 79
f 60 80 79
f 60 41 80
f 41 61 80
