# MANI Agentic Pattern Engine — body model mesh
# vertices: 80, faces: 120
v 22.097664 0.000000 0.000000
v 21.016127 0.000000 5.163368
v 17.877386 0.000000 9.821309
v 12.988681 0.000000 13.517872
v 6.828554 0.000000 15.891211
v 0.000000 0.000000 16.709009
v -6.828554 0.000000 15.891211
v -12.988681 0.000000 13.517872
v -17.877386 0.000000 9.821309
v -21.016127 0.000000 5.163368
v -22.097664 0.000000 0.000000
v -21.016127 0.000000 -5.163368
v -17.877386 0.000000 -9.821309
v -12.988681 0.000000 -13.517872
v -6.828554 0.000000 -15.891211
v -0.000000 0.000000 -16.709009
v 6.828554 0.000000 -15.891211
v 12.988681 0.000000 -13.517872
v 17.877386 0.000000 -9.821309
v 21.016127 0.000000 -5.163368
v 16.761856 20.000000 0.000000
v 15.941472 20.000000 4.280742
v 13.560626 20.000000 8.142456
v 9.852372 20.000000 11.207129
v 5.179698 20.000000 13.174770
v 0.000000 20.000000 13.852773
v -5.179698 20.000000 13.174770
v -9.852372 20.000000 11.207129
v -13.560626 20.000000 8.142456
v -15.941472 20.000000 4.280742
v -16.761856 20.000000 0.000000
v -15.941472 20.000000 -4.280742
v -13.560626 20.000000 -8.142456
v -9.852372 20.000000 -11.207129
v -5.179698 20.000000 -13.174770
v -0.000000 20.000000 -13.852773
v 5.179698 20.000000 -13.174770
v 9.852372 20.000000 -11.207129
v 13.560626 20.000000 -8.142456
v 15.941472 20.000000 -4.280742
v 22.078457 40.000000 0.000000
v 20.997861 40.000000 4.737929
v 17.861847 40.000000 9.012077
v 12.977391 40.000000 12.404060
v 6.822618 40.000000 14.581848
v 0.000000 40.000000 15.332262
v -6.822618 40.000000 14.581848
v -12.977391 40.000000 12.404060
v -17.861847 40.000000 9.012077
v -20.997861 40.000000 4.737929
v -22.078457 40.000000 0.000000
v -20.997861 40.000000 -4.737929
v -17.861847 40.000000 -9.012077
v -12.977391 40.000000 -12.404060
v -6.822618 40.000000 -14.581848
v -0.000000 40.000000 -15.332262
v 6.822618 40.000000 -14.581848
v 12.977391 40.000000 -12.404060
v 17.861847 40.000000 -9.012077
v 20.997861 40.000000 -4.737929
v 22.000000 50.000000 0.000000
v 20.923243 50.000000 3.468558
v 17.798374 50.000000 6.597590
v 12.931276 50.000000 9.080803
v 6.798374 50.000000 10.675124
v 0.000000 50.000000 11.224490
v -6.798374 50.000000 10.675124
v -12.931276 50.000000 9.080803
v -17.798374 50.000000 6.597590
v -20.923243 50.000000 3.468558
v -22.000000 50.000000 0.000000
v -20.923243 50.000000 -3.468558
v -17.798374 50.000000 -6.597590
v -12.931276 50.000000 -9.080803
v -6.798374 50.000000 -10.675124
v -0.000000 50.000000 -11.224490
v 6.798374 50.000000 -10.675124
v 12.931276 50.000000 -9.080803
v 17.798374 50.000000 -6.597590
v 20.923243 50.000000 -3.468558
f 1 2 21
f 2 22 21
f 2 3 22
f 3 23 22
f 3 4 23
f 4 24 23
f 4 5 24
f 5 25 24
f 5 6 25
f 6 26 25
f 6 7 26
f 7 27 26
f 7 8 27
f 8 28 27
f 8 9 28
f 9 29 28
f 9 10 29
f 10 30 29
f 10 11 30
f 11 31 30
f 11 12 31
f 12 32 31
f 12 13 32
f 13 33 32
f 13 14 33
f 14 34 33
f 14 15 34
f 15 35 34
f 15 16 35
f 16 36 35
f 16 17 36
f 17 37 36
f 17 18 37
f 18 38 37
f 18 19 38
f 19 39 38
f 19 20 39
f 20 40 39
f 20 1 40
f 1 21 40
f 21 22 41
f 22 42 41
f 22 23 42
f 23 43 42
f 23 24 43
f 24 44 43
f 24 25 44
f 25 45 44
f 25 26 45
f 26 46 45
f 26 27 46
f 27 47 46
f 27 28 47
f 28 48 47
f 28 29 48
f 29 49 48
f 29 30 49
f 30 50 49
f 30 31 50
f 31 51 50
f 31 32 51
f 32 52 51
f 32 33 52
f 33 53 52
f 33 34 53
f 34 54 53
f 34 35 54
f 35 55 54
f 35 36 55
f 36 56 55
f 36 37 56
f 37 57 56
f 37 38 57
f 38 58 57
f 38 39 58
f 39 59 58
f 39 40 59
f 40 60 59
f 40 21 60
f 21 41 60
f 41 42 61
f 42 62 61
f 42 43 62
f 43 63 62
f 43 44 63
f 44 64 63
f 44 45 64
f 45 65 64
f 45 46 65
f 46 66 65
f 46 47 66
f 47 67 66
f 47 48 67
f 48 68 67
f 48 49 68
f 49 69 68
f 49 50 69
f 50 70 69
f 50 51 70
f 51 71 70
f 51 52 71
f 52 72 71
f 52 53 72
f 53 73 72
f 53 54 73
f 54 74 73
f 54 55 74
f 55 75 74
f 55 56 75
f 56 76 75
f 56 57 76
f 57 77 76
f 57 58 77
f 58 78 77
f 58 59 78
f 59 79 78
f 59 60 79
f 60 80 79
f 60 41 80
f 41 61 80
