# MANI Agentic Pattern Engine — bodice sloper pattern pieces
o Front_Bodice
v 18.250000 -20.533333 0.000000
v 0.000000 0.000000 0.000000
v 21.000000 -3.000000 0.000000
v 29.500000 -5.000000 0.000000
v 29.500000 -19.200000 0.000000
v 29.500000 -48.000000 0.000000
v 0.000000 -48.000000 0.000000
f 1 2 3
f 1 3 4
f 1 4 5
f 1 5 6
f 1 6 7
f 1 7 2
v 17.700000 -19.200000 0.100000
v 27.645421 -18.156641 0.100000
v 27.645421 -20.243359 0.100000
f 8 9 10
v 10.325000 -40.800000 0.100000
v 16.322112 -40.613861 0.100000
v 16.322112 -40.986139 0.100000
f 11 12 13
o Back_Bodice
v 77.750000 -20.533333 0.000000
v 60.000000 0.000000 0.000000
v 81.000000 -3.000000 0.000000
v 88.500000 -5.000000 0.000000
v 88.500000 -19.200000 0.000000
v 88.500000 -48.000000 0.000000
v 60.000000 -48.000000 0.000000
f 14 15 16
f 14 16 17
f 14 17 18
f 14 18 19
f 14 19 20
f 14 20 15
v 70.500000 -5.000000 0.100000
v 77.995431 -4.738254 0.100000
v 77.995431 -5.261746 0.100000
f 21 22 23
