# MANI Agentic Pattern Engine — bodice sloper pattern pieces
o Front_Bodice
v 19.666667 -21.333333 0.000000
v 0.000000 0.000000 0.000000
v 22.000000 -3.000000 0.000000
v 32.000000 -5.000000 0.000000
v 32.000000 -20.000000 0.000000
v 32.000000 -50.000000 0.000000
v 0.000000 -50.000000 0.000000
f 1 2 3
f 1 3 4
f 1 4 5
f 1 5 6
f 1 6 7
f 1 7 2
v 19.200000 -20.000000 0.100000
v 29.140958 -18.914939 0.100000
v 29.140958 -21.085061 0.100000
f 8 9 10
v 11.200000 -42.500000 0.100000
v 17.197944 -42.342938 0.100000
v 17.197944 -42.657062 0.100000
f 11 12 13
o Back_Bodice
v 79.166667 -21.333333 0.000000
v 60.000000 0.000000 0.000000
v 82.000000 -3.000000 0.000000
v 91.000000 -5.000000 0.000000
v 91.000000 -20.000000 0.000000
v 91.000000 -50.000000 0.000000
v 60.000000 -50.000000 0.000000
f 14 15 16
f 14 16 17
f 14 17 18
f 14 18 19
f 14 19 20
f 14 20 15
v 71.000000 -5.000000 0.100000
v 78.495431 -4.738254 0.100000
v 78.495431 -5.261746 0.100000
f 21 22 23
