# MANI Agentic Pattern Engine — bodice sloper pattern pieces
o Front_Bodice
v 18.125000 -18.933333 0.000000
v 0.000000 0.000000 0.000000
v 21.000000 -3.000000 0.000000
v 29.250000 -5.000000 0.000000
v 29.250000 -17.600000 0.000000
v 29.250000 -44.000000 0.000000
v 0.000000 -44.000000 0.000000
f 1 2 3
f 1 3 4
f 1 4 5
f 1 5 6
f 1 6 7
f 1 7 2
v 17.550000 -17.600000 0.100000
v 27.505666 -16.659404 0.100000
v 27.505666 -18.540596 0.100000
f 8 9 10
v 10.237500 -37.400000 0.100000
v 16.214995 -36.880811 0.100000
v 16.214995 -37.919189 0.100000
f 11 12 13
o Back_Bodice
v 77.625000 -18.933333 0.000000
v 60.000000 0.000000 0.000000
v 81.000000 -3.000000 0.000000
v 88.250000 -5.000000 0.000000
v 88.250000 -17.600000 0.000000
v 88.250000 -44.000000 0.000000
v 60.000000 -44.000000 0.000000
f 14 15 16
f 14 16 17
f 14 17 18
f 14 18 19
f 14 19 20
f 14 20 15
v 70.500000 -5.000000 0.100000
v 77.977650 -4.421425 0.100000
v 77.977650 -5.578575 0.100000
f 21 22 23
